. 
 
http://www.torrenting.com          :     Once & For all ;)


               www . Torrenting . Com 

(((((((((((((= Enjoy No RAR releases =))))))))))))))))))))


...................................NFO:....................................

.                                                                                                     
       
     
     
       
       
     
     
                                         
                                         
                EXVID                    
                                         
         
                                         
         Filled the Archives             
                                         
         
                                         
                With:                    
                                         
         
                                         
                                    
     E240                           
                                    
     SP               (C) 2009      
                                         
     
     
     
                                                                                  
                                                                                   
                 Crossworlds.1996.iNTERNAL.DVDRip.XviD-EXViDiNT                     
                                                                                   
                                                                                  
     
                                                                                               
EXViD aims to iNTERNAL those releases which have been lost in the archives.
EXViD aims to PRE non-internal releases which have poor sources and are likely skipped by others. 
http://www.imdb.com/title/tt0115985/
Subtitles: EN, FR, ES
Date: 2012.02

Director: Krishna Rao

Genres: Action | Sci-Fi | Comedy

Plot:
A young man discovers that his father was from another dimension and that he is the key to the
operation of a crystal that can be the deciding factor in a war crossing the dimensions.

Cast:
Rutger Hauer	...	A.T.
Josh Charles	...	Joe Talbot
Stuart Wilson	...	Ferris
Andrea Roth	...	Laura
Perry Anzilotti	...	Rebo
Jack Black	...	Steve
Richard McGregor	...	Stu
Ellen Geer	...	Joe's Mom
Beverly Johnson	...	The Queen
Michael Stadvec	...	Cop #1
Michael Wiseman	...	Cop #2
Shani Rigsbee	...	The Dancer
Norita Golanos	...	Receptionist (as Norita Galanos)
Tony Ervolina	...	Joe's Father

Stats:
Format                                   : AVI
Format/Info                              : Audio Video Interleave
File size                                : 702 MiB
Duration                                 : 1h 31mn
Overall bit rate mode                    : Variable
Overall bit rate                         : 1 077 Kbps

Video
ID                                       : 0
Format                                   : MPEG-4 Visual
Format profile                           : Advanced Simple@L5
Format settings, BVOP                    : 2
Format settings, QPel                    : No
Format settings, GMC                     : No warppoints
Format settings, Matrix                  : Default (H.263)
Codec ID                                 : XVID
Codec ID/Hint                            : XviD
Duration                                 : 1h 31mn
Bit rate                                 : 936 Kbps
Width                                    : 624 pixels
Height                                   : 336 pixels
Display aspect ratio                     : 1.857
Frame rate                               : 23.976 fps
Color space                              : YUV
Chroma subsampling                       : 4:2:0
Bit depth                                : 8 bits
Scan type                                : Progressive
Compression mode                         : Lossy
Bits/(Pixel*Frame)                       : 0.186
Stream size                              : 610 MiB (87%)
Writing library                          : XviD 64

Audio
ID                                       : 1
Format                                   : MPEG Audio
Format version                           : Version 1
Format profile                           : Layer 3
Mode                                     : Joint stereo
Codec ID                                 : 55
Codec ID/Hint                            : MP3
Duration                                 : 1h 31mn
Bit rate mode                            : Variable
Bit rate                                 : 128 Kbps
Channel(s)                               : 2 channels
Sampling rate                            : 48.0 KHz
Compression mode                         : Lossy
Stream size                              : 83.5 MiB (12%)
Alignment                                : Aligned on interleaves
Interleave, duration                     : 24 ms (0.58 video frame)
Interleave, preload duration             : 179 ms



Release notes:
Enjoy!

Looking for:
75TB+ Archives
DUTCH/FLEMiSH Archives
                                                                                                    
Greets: CRBS EPiSODE FiCO FLS iLS KLASSiGER LiPSYNC MADE NODLABS RUNNER SPRiNTER      
   

                                                                    ASCII DONE BY XX^NFO 2oo9     
 

RLS-Crc: 415243414445:42EECD90